<svg xmlns="http://www.w3.org/2000/svg" width="70" height="58.856" viewBox="0 0 70 58.856"><g transform="translate(-6 -45.396)"><g transform="translate(6.573 70.974)"><path d="M76.852,134.552c-5.738,0-5.738,3.443-11.477,3.443s-5.738-3.443-11.477-3.443-5.737,3.443-11.475,3.443-5.738-3.443-11.475-3.443-5.737,3.443-11.475,3.443S13.736,134.552,8,134.552v21.23H76.851v-21.23Z" transform="translate(-7.999 -134.552)" fill="#a4c9ff"/></g><g transform="translate(6 70.4)"><path d="M75.426,154.929H6.574A.574.574,0,0,1,6,154.355v-21.23a.574.574,0,0,1,.574-.574,10.249,10.249,0,0,1,6.032,1.8,9.167,9.167,0,0,0,5.442,1.64,9.167,9.167,0,0,0,5.442-1.64,10.249,10.249,0,0,1,6.032-1.8,10.251,10.251,0,0,1,6.033,1.8A9.168,9.168,0,0,0,41,135.995a9.168,9.168,0,0,0,5.442-1.64,10.995,10.995,0,0,1,12.066,0,9.855,9.855,0,0,0,10.886,0,10.254,10.254,0,0,1,6.033-1.8.574.574,0,0,1,.574.574v21.23A.574.574,0,0,1,75.426,154.929ZM7.148,153.781h67.7v-20.07a9.151,9.151,0,0,0-4.869,1.627,11,11,0,0,1-12.067,0,9.854,9.854,0,0,0-10.885,0,10.25,10.25,0,0,1-6.033,1.8,10.25,10.25,0,0,1-6.033-1.8,9.168,9.168,0,0,0-5.443-1.64,9.167,9.167,0,0,0-5.442,1.64,10.251,10.251,0,0,1-6.033,1.8,10.249,10.249,0,0,1-6.032-1.8,9.146,9.146,0,0,0-4.868-1.627v20.07Z" transform="translate(-6 -132.552)" fill="#3762cc"/></g><g transform="translate(6.573 80.154)"><g transform="translate(0 0)"><path d="M76.852,166.552c-5.738,0-5.738,3.443-11.477,3.443s-5.738-3.443-11.477-3.443-5.737,3.443-11.475,3.443-5.738-3.443-11.475-3.443-5.737,3.443-11.475,3.443S13.736,166.552,8,166.552v21.23H76.851v-21.23Z" transform="translate(-7.999 -166.552)" fill="#e0ebfc"/></g></g><g transform="translate(6 79.58)"><path d="M75.426,186.929H6.574A.574.574,0,0,1,6,186.355v-21.23a.574.574,0,0,1,.574-.574,10.25,10.25,0,0,1,6.032,1.8,9.167,9.167,0,0,0,5.442,1.64,9.167,9.167,0,0,0,5.442-1.64,10.25,10.25,0,0,1,6.032-1.8,10.252,10.252,0,0,1,6.033,1.8A9.168,9.168,0,0,0,41,167.995a9.168,9.168,0,0,0,5.442-1.64,10.995,10.995,0,0,1,12.066,0,9.855,9.855,0,0,0,10.886,0,10.254,10.254,0,0,1,6.033-1.8.574.574,0,0,1,.574.574v21.23A.574.574,0,0,1,75.426,186.929ZM7.148,185.781h67.7v-20.07a9.151,9.151,0,0,0-4.869,1.627,11,11,0,0,1-12.067,0,9.854,9.854,0,0,0-10.885,0,10.25,10.25,0,0,1-6.033,1.8,10.25,10.25,0,0,1-6.033-1.8,9.168,9.168,0,0,0-5.443-1.64,9.167,9.167,0,0,0-5.442,1.64,10.251,10.251,0,0,1-6.033,1.8,10.249,10.249,0,0,1-6.032-1.8,9.146,9.146,0,0,0-4.868-1.627v20.07Z" transform="translate(-6 -164.552)" fill="#3762cc"/></g><g transform="translate(56.061 45.97)"><g transform="translate(0 0)"><path d="M183.13,56.576h-2.056A.574.574,0,0,1,180.5,56V47.97a.574.574,0,0,1,.574-.574h2.056a.574.574,0,0,1,.574.574V56a.574.574,0,0,1-.574.574Z" transform="translate(-180.5 -47.396)" fill="#6bdddd"/></g></g><g transform="translate(68.541 45.97)"><g transform="translate(0 0)"><path d="M226.63,56.576h-2.056A.574.574,0,0,1,224,56V47.97a.574.574,0,0,1,.574-.574h2.056a.574.574,0,0,1,.574.574V56a.574.574,0,0,1-.574.574Z" transform="translate(-224 -47.396)" fill="#6bdddd"/></g></g><g transform="translate(54.053 46.974)"><g transform="translate(0 0)"><path d="M175.508,58.068h-1.434a.574.574,0,0,1-.574-.574V51.47a.574.574,0,0,1,.574-.574h1.434Z" transform="translate(-173.5 -50.896)" fill="#6bdddd"/></g></g><g transform="translate(71.745 46.974)"><g transform="translate(0 0)"><path d="M236.6,58.068h-1.434V50.9H236.6a.574.574,0,0,1,.574.574v6.025A.574.574,0,0,1,236.6,58.068Z" transform="translate(-235.167 -50.896)" fill="#6bdddd"/></g></g><g transform="translate(13.459 48.839)"><g transform="translate(0 0)"><path d="M0,0H9.276V3.443H0Z" transform="translate(9.276 3.443) rotate(180)" fill="#6bdddd"/></g></g><g transform="translate(22.735 45.97)"><g transform="translate(0 0)"><path d="M64.907,56.576h2.056A.574.574,0,0,0,67.537,56V47.97a.574.574,0,0,0-.574-.574H64.907a.574.574,0,0,0-.574.574V56A.574.574,0,0,0,64.907,56.576Z" transform="translate(-64.333 -47.396)" fill="#6bdddd"/></g></g><g transform="translate(10.255 45.97)"><g transform="translate(0 0)"><path d="M21.407,56.576h2.056A.574.574,0,0,0,24.037,56V47.97a.574.574,0,0,0-.574-.574H21.407a.574.574,0,0,0-.574.574V56A.574.574,0,0,0,21.407,56.576Z" transform="translate(-20.833 -47.396)" fill="#6bdddd"/></g></g><g transform="translate(25.939 46.974)"><g transform="translate(0 0)"><path d="M75.5,58.068h1.434a.574.574,0,0,0,.574-.574V51.47a.574.574,0,0,0-.574-.574H75.5Z" transform="translate(-75.5 -50.896)" fill="#6bdddd"/></g></g><g transform="translate(8.247 46.974)"><g transform="translate(0 0)"><path d="M14.407,58.068h1.434V50.9H14.407a.574.574,0,0,0-.574.574v6.025A.574.574,0,0,0,14.407,58.068Z" transform="translate(-13.833 -50.896)" fill="#6bdddd"/></g></g><g transform="translate(30.576 58.717)"><path d="M110.08,92.2l-.519-.374H94.147V92.2l-.05,0a2.409,2.409,0,1,0,0,4.817A2.447,2.447,0,0,0,94.357,97a7.983,7.983,0,0,0,15.512,0,2.447,2.447,0,0,0,.261.014,2.408,2.408,0,1,0-.05-4.815Z" transform="translate(-91.666 -91.83)" fill="#f9cfcf"/></g><g transform="translate(31.485 58.717)"><path d="M94.833,91.83l.112.82a2.432,2.432,0,0,1,1.41-.449l.05,0V91.83Z" transform="translate(-94.833 -91.83)" fill="#3762cc"/></g><g transform="translate(48.471 58.717)"><path d="M154.562,92.2a2.4,2.4,0,0,1,1.228.3l.074-.676h-1.821Z" transform="translate(-154.043 -91.83)" fill="#3762cc"/></g><g transform="translate(38.963 64.258)"><g transform="translate(0 0)"><path d="M122.961,113.451a2.231,2.231,0,0,1-1.584-.619,1.583,1.583,0,0,1-.478-1.113.574.574,0,0,1,1.148,0,.45.45,0,0,0,.145.305,1.193,1.193,0,0,0,1.534,0,.449.449,0,0,0,.145-.3.574.574,0,1,1,1.148,0,1.585,1.585,0,0,1-.478,1.113A2.225,2.225,0,0,1,122.961,113.451Z" transform="translate(-120.899 -111.145)" fill="#3762cc"/></g></g><g transform="translate(36.121 58.802)"><g transform="translate(0 0)"><path d="M111.956,95.652a.963.963,0,0,1-.962-.962v-1.6a.962.962,0,1,1,1.923,0v1.6A.963.963,0,0,1,111.956,95.652Z" transform="translate(-110.994 -92.126)" fill="#3762cc"/></g></g><g transform="translate(44.001 58.802)"><g transform="translate(0 0)"><path d="M139.423,95.652a.963.963,0,0,1-.962-.962v-1.6a.962.962,0,0,1,1.923,0v1.6A.963.963,0,0,1,139.423,95.652Z" transform="translate(-138.461 -92.126)" fill="#3762cc"/></g></g><g transform="translate(31.337 46.795)"><g transform="translate(0 0)"><path d="M104.09,50.271h-.444a9.33,9.33,0,0,0-9.33,9.33v2.593h19.1V59.6A9.33,9.33,0,0,0,104.09,50.271Z" transform="translate(-94.316 -50.271)" fill="#4671c6"/></g></g><g transform="translate(55.488 45.396)"><path d="M181.7,55.724h-2.056a1.149,1.149,0,0,1-1.148-1.148V46.544a1.149,1.149,0,0,1,1.148-1.148H181.7a1.149,1.149,0,0,1,1.148,1.148v8.033a1.149,1.149,0,0,1-1.148,1.148Zm-2.056-9.18v8.033H181.7V46.544Z" transform="translate(-178.5 -45.396)" fill="#3762cc"/></g><g transform="translate(67.967 45.396)"><path d="M225.2,55.724h-2.056A1.149,1.149,0,0,1,222,54.576V46.544a1.149,1.149,0,0,1,1.148-1.148H225.2a1.149,1.149,0,0,1,1.148,1.148v8.033A1.149,1.149,0,0,1,225.2,55.724Zm-2.056-9.18v8.033H225.2V46.544Z" transform="translate(-222 -45.396)" fill="#3762cc"/></g><g transform="translate(53.48 46.4)"><g transform="translate(0 0)"><path d="M174.082,57.216h-1.434a1.149,1.149,0,0,1-1.148-1.148V50.044a1.149,1.149,0,0,1,1.148-1.148h1.434a.574.574,0,0,1,.574.574v7.172A.574.574,0,0,1,174.082,57.216Zm-1.434-7.172v6.025h.861V50.044Z" transform="translate(-171.5 -48.896)" fill="#3762cc"/></g></g><g transform="translate(71.171 46.4)"><g transform="translate(0 0)"><path d="M235.175,57.216h-1.434a.574.574,0,0,1-.574-.574V49.47a.574.574,0,0,1,.574-.574h1.434a1.149,1.149,0,0,1,1.148,1.148v6.025A1.149,1.149,0,0,1,235.175,57.216Zm-.861-1.148h.862V50.044h-.861Z" transform="translate(-233.167 -48.896)" fill="#3762cc"/></g></g><g transform="translate(22.161 45.396)"><path d="M65.537,55.724H63.481a1.149,1.149,0,0,1-1.148-1.148V46.544A1.149,1.149,0,0,1,63.481,45.4h2.056a1.149,1.149,0,0,1,1.148,1.148v8.033A1.149,1.149,0,0,1,65.537,55.724Zm-2.056-9.18v8.033h2.056V46.544Z" transform="translate(-62.333 -45.396)" fill="#3762cc"/></g><g transform="translate(9.682 45.396)"><path d="M22.037,55.724H19.981a1.149,1.149,0,0,1-1.148-1.148V46.544A1.149,1.149,0,0,1,19.981,45.4h2.056a1.149,1.149,0,0,1,1.148,1.148v8.033A1.149,1.149,0,0,1,22.037,55.724Zm-2.056-9.18v8.033h2.056V46.544Z" transform="translate(-18.833 -45.396)" fill="#3762cc"/></g><g transform="translate(25.365 46.4)"><g transform="translate(0 0)"><path d="M75.508,57.216H74.074a.574.574,0,0,1-.574-.574V49.47a.574.574,0,0,1,.574-.574h1.434a1.149,1.149,0,0,1,1.148,1.148v6.025A1.149,1.149,0,0,1,75.508,57.216Zm-.861-1.148h.861V50.044h-.861Z" transform="translate(-73.5 -48.896)" fill="#3762cc"/></g></g><g transform="translate(7.673 46.4)"><g transform="translate(0 0)"><path d="M14.415,57.216H12.981a1.149,1.149,0,0,1-1.148-1.148V50.044A1.149,1.149,0,0,1,12.981,48.9h1.434a.574.574,0,0,1,.574.574v7.172A.574.574,0,0,1,14.415,57.216Zm-1.434-7.172v6.025h.861V50.044Z" transform="translate(-11.833 -48.896)" fill="#3762cc"/></g></g><g transform="translate(12.885 48.265)"><path d="M39.85,59.986H30.574A.574.574,0,0,1,30,59.412V55.97a.574.574,0,0,1,.574-.574H39.85a.574.574,0,0,1,.574.574v3.443A.574.574,0,0,1,39.85,59.986Zm-8.7-1.148h8.128v-2.3H31.148Z" transform="translate(-30 -55.396)" fill="#3762cc"/></g><g transform="translate(59.265 48.839)"><g transform="translate(0 0)"><path d="M0,0H9.276V3.443H0Z" transform="translate(9.276 3.443) rotate(180)" fill="#6bdddd"/></g></g><g transform="translate(58.691 48.265)"><path d="M199.517,59.986h-9.276a.574.574,0,0,1-.574-.574V55.97a.574.574,0,0,1,.574-.574h9.276a.574.574,0,0,1,.574.574v3.443A.574.574,0,0,1,199.517,59.986Zm-8.7-1.148h8.128v-2.3h-8.128Z" transform="translate(-189.667 -55.396)" fill="#3762cc"/></g><g transform="translate(13.794 47.583)"><path d="M41.774,57.615V55.089A2.074,2.074,0,0,0,40.5,53.177a2.151,2.151,0,0,0-.844-.157h-4.42A2.074,2.074,0,0,0,33.323,54.3a2.161,2.161,0,0,0-.156.844v2.487A1.1,1.1,0,0,0,34.275,58.7h6.391a1.1,1.1,0,0,0,1.108-1.078v-.011Z" transform="translate(-33.167 -53.02)" fill="#f9cfcf"/></g><g transform="translate(30.003 58.143)"><path d="M100.687,102.247a8.49,8.49,0,0,1-8.2-6.086,2.98,2.98,0,0,1-.322-5.918.574.574,0,0,1,.551-.413h15.414a.574.574,0,0,1,.335.108l.372.268a3.018,3.018,0,0,1,1.967.85,2.949,2.949,0,0,1,.9,2.128,3,3,0,0,1-2.826,2.977,8.488,8.488,0,0,1-8.2,6.086ZM92.932,95a.573.573,0,0,1,.558.442,7.409,7.409,0,0,0,14.4,0,.571.571,0,0,1,.619-.439,1.917,1.917,0,0,0,.2.011,1.848,1.848,0,0,0,1.857-1.835,1.81,1.81,0,0,0-.553-1.306,1.861,1.861,0,0,0-1.339-.527.572.572,0,0,1-.351-.108l-.369-.266H93.258a.575.575,0,0,1-.137.211.568.568,0,0,1-.415.163l-.048,0a1.835,1.835,0,1,0,.012,3.67,1.916,1.916,0,0,0,.2-.011.507.507,0,0,1,.062,0Z" transform="translate(-89.666 -89.83)" fill="#3762cc"/></g><g transform="translate(30.763 46.221)"><path d="M111.993,61.34H92.89a.574.574,0,0,1-.574-.574V58.174a9.915,9.915,0,0,1,9.9-9.9h.444a9.915,9.915,0,0,1,9.9,9.9v2.593A.574.574,0,0,1,111.993,61.34Zm-18.53-1.148H111.42V58.174a8.766,8.766,0,0,0-8.756-8.756h-.444a8.766,8.766,0,0,0-8.756,8.756Z" transform="translate(-92.316 -48.27)" fill="#3762cc"/></g><g transform="translate(33.115 58.011)"><g transform="translate(0 0)"><path d="M105.571,94.477h-2.747c-3.077,0-3.084-5.109,0-5.109h2.747a2.3,2.3,0,0,1,2.3,2.3v.508A2.3,2.3,0,0,1,105.571,94.477Z" transform="translate(-100.514 -89.368)" fill="#e0ebfc"/></g></g><g transform="translate(34.254 58.98)"><g transform="translate(0 0)"><path d="M105.869,95.916a1.384,1.384,0,0,1-1.384-1.384v-.4a1.384,1.384,0,0,1,1.384-1.384h2.322a1.384,1.384,0,0,1,1.384,1.384v.4a1.384,1.384,0,0,1-1.384,1.384h-2.322Z" transform="translate(-104.485 -92.746)" fill="#4671c6"/></g></g><g transform="translate(41.573 58.011)"><g transform="translate(0 0)"><path d="M135.045,94.476H132.3a2.3,2.3,0,0,1-2.3-2.3v-.508a2.3,2.3,0,0,1,2.3-2.3h2.747C138.123,89.367,138.129,94.476,135.045,94.476Z" transform="translate(-129.998 -89.367)" fill="#e0ebfc"/></g></g><g transform="translate(42.702 58.98)"><g transform="translate(0 0)"><path d="M135.318,95.916a1.384,1.384,0,0,1-1.384-1.384v-.4a1.384,1.384,0,0,1,1.384-1.384h2.322c1.863,0,1.859,3.17,0,3.17Z" transform="translate(-133.934 -92.746)" fill="#4671c6"/></g></g><g transform="translate(32.541 57.437)"><path d="M104.145,93.623H101.4a2.926,2.926,0,0,1-2.884-3.13,3.373,3.373,0,0,1,.7-2.115,2.7,2.7,0,0,1,2.18-1.012h2.747a2.878,2.878,0,0,1,2.874,2.874v.508A2.877,2.877,0,0,1,104.145,93.623ZM101.4,88.515a1.568,1.568,0,0,0-1.286.583,2.253,2.253,0,0,0-.451,1.4,1.8,1.8,0,0,0,1.737,1.983h2.747a1.729,1.729,0,0,0,1.727-1.727v-.508a1.729,1.729,0,0,0-1.727-1.727H101.4Z" transform="translate(-98.514 -87.367)" fill="#3762cc"/></g><g transform="translate(40.999 57.437)"><path d="M133.619,93.623h-2.747A2.878,2.878,0,0,1,128,90.749v-.508a2.878,2.878,0,0,1,2.874-2.874h2.747A2.926,2.926,0,0,1,136.5,90.5a3.373,3.373,0,0,1-.7,2.115,2.7,2.7,0,0,1-2.18,1.012Zm-2.747-5.109a1.729,1.729,0,0,0-1.727,1.727v.508a1.729,1.729,0,0,0,1.727,1.727h2.747a1.567,1.567,0,0,0,1.286-.583,2.255,2.255,0,0,0,.451-1.4,1.8,1.8,0,0,0-1.737-1.983h-2.747Z" transform="translate(-127.998 -87.367)" fill="#3762cc"/></g><g transform="translate(39.24 59.744)"><g transform="translate(0 0)"><path d="M124.451,97.477h-1.6a.574.574,0,0,1-.34-.112l-.408-.3a.574.574,0,0,1-.234-.462v-.62a.574.574,0,0,1,.574-.574h2.42a.574.574,0,0,1,.574.574v.62a.575.575,0,0,1-.234.462l-.408.3A.576.576,0,0,1,124.451,97.477Z" transform="translate(-121.866 -95.409)" fill="#3762cc"/></g></g><g transform="translate(13.22 47.009)"><g transform="translate(0 0)"><path d="M39.239,57.851H32.849a1.671,1.671,0,0,1-1.682-1.65V53.712a2.725,2.725,0,0,1,.2-1.068,2.651,2.651,0,0,1,2.441-1.625h4.42a2.715,2.715,0,0,1,1.069.2,2.651,2.651,0,0,1,1.622,2.44V56.2A1.671,1.671,0,0,1,39.239,57.851Zm-5.43-5.684a1.5,1.5,0,0,0-1.384.925,1.586,1.586,0,0,0-.111.62v2.476a.53.53,0,0,0,.534.515h6.391a.528.528,0,0,0,.534-.505l.574-.01h-.574V53.662a1.506,1.506,0,0,0-.924-1.384,1.587,1.587,0,0,0-.619-.111h-4.42Z" transform="translate(-31.167 -51.019)" fill="#3762cc"/></g></g><g transform="translate(13.794 47.584)"><path d="M51.227,85.768H69.564v-.006l0,.006,14.594-3.9a2.582,2.582,0,0,0,1.915-2.494c0-18.4-.059-17.247.134-17.661.915-1.967,1.372-2.689,1.372-4.092,0-2.659.046-2.843-.156-3.32a2.074,2.074,0,0,0-1.913-1.275H81.091a2.151,2.151,0,0,0-.844.157,2.074,2.074,0,0,0-1.273,1.912c0,4.07-.162,3.32,1.341,6.55.239.514.267-.416-1.464,13.933a.861.861,0,0,1-.854.758H66.168a4.181,4.181,0,0,0-.773-.074h-1.3V74.519h0a8,8,0,0,1-7.393,0h0v1.741H55.4a4.181,4.181,0,0,0-.773.074H42.753a.86.86,0,0,1-.854-.758c-1.727-14.311-1.708-13.41-1.464-13.933l.859-1.846a5.166,5.166,0,0,0,.482-2.178V55.09A2.074,2.074,0,0,0,40.5,53.178a2.151,2.151,0,0,0-.844-.157H35.237A2.074,2.074,0,0,0,33.324,54.3a2.162,2.162,0,0,0-.156.844v2.476a5.163,5.163,0,0,0,.482,2.178l.89,1.914c.193.414.134-.742.134,17.661a2.582,2.582,0,0,0,1.915,2.494Z" transform="translate(-33.168 -53.021)" fill="#f9cfcf"/></g><g transform="translate(13.22 47.01)"><path d="M68.138,84.916H49.8a.574.574,0,0,1-.148-.019l-14.639-3.9a3.16,3.16,0,0,1-2.34-3.048c0-4.364,0-7.629.006-10.075.005-5.3.007-6.981-.043-7.259-.017-.031-.03-.055-.043-.085l-.89-1.914a5.777,5.777,0,0,1-.536-2.42V53.715a2.725,2.725,0,0,1,.2-1.068,2.651,2.651,0,0,1,2.441-1.625h4.421a2.715,2.715,0,0,1,1.069.2,2.652,2.652,0,0,1,1.622,2.44v2.526a5.781,5.781,0,0,1-.535,2.42l-.859,1.846c-.016.034-.031.063-.045.091-.006.012-.013.024-.018.036-.045.216.13,1.641.648,5.872.23,1.88.534,4.355.928,7.624a.287.287,0,0,0,.285.252h11.82a4.753,4.753,0,0,1,.825-.074H54.7V73.09a.574.574,0,0,1,.84-.508,7.433,7.433,0,0,0,6.863,0l.04-.019a.574.574,0,0,1,.8.527v1.164h.728a4.755,4.755,0,0,1,.824.074H76.568a.287.287,0,0,0,.285-.253c.381-3.158.677-5.576.9-7.432.535-4.373.715-5.846.668-6.079l-.011-.016c-.015-.028-.03-.059-.047-.095-.136-.292-.258-.552-.368-.785-1.022-2.168-1.041-2.261-1.029-4.941,0-.314,0-.667,0-1.066a2.652,2.652,0,0,1,1.622-2.44,2.719,2.719,0,0,1,1.069-.2h4.42a2.652,2.652,0,0,1,2.441,1.625c.211.5.21.743.2,2.327,0,.335,0,.736,0,1.217a7.437,7.437,0,0,1-1.057,3.551c-.114.239-.236.5-.369.783-.015.033-.03.06-.043.085-.05.279-.048,1.962-.043,7.282,0,2.444.006,5.7.006,10.052a3.16,3.16,0,0,1-2.34,3.048L68.288,84.9A.625.625,0,0,1,68.138,84.916ZM49.875,83.769H68.063l14.52-3.885a2.011,2.011,0,0,0,1.489-1.94c0-4.351,0-7.608-.006-10.051-.007-7.481-.007-7.481.18-7.827.147-.313.271-.575.386-.816a6.439,6.439,0,0,0,.946-3.059c0-.483,0-.885,0-1.222.006-1.5,0-1.608-.114-1.875a1.506,1.506,0,0,0-1.384-.925h-4.42a1.578,1.578,0,0,0-.619.111,1.506,1.506,0,0,0-.924,1.384c0,.4,0,.755,0,1.071-.011,2.472-.011,2.472.919,4.447.111.235.234.5.371.79l.024.049c.237.454.237.454-.535,6.764-.227,1.856-.523,4.273-.9,7.431a1.436,1.436,0,0,1-1.424,1.263H64.74a.6.6,0,0,1-.106-.01,3.587,3.587,0,0,0-.666-.065h-1.3a.574.574,0,0,1-.574-.574v-.847a8.584,8.584,0,0,1-6.248,0v.85a.574.574,0,0,1-.574.574h-1.3a3.635,3.635,0,0,0-.667.065.6.6,0,0,1-.106.01H41.325A1.436,1.436,0,0,1,39.9,74.216c-.394-3.268-.7-5.742-.928-7.621-.749-6.111-.749-6.111-.512-6.572l.025-.05.859-1.846a4.619,4.619,0,0,0,.428-1.936V53.664a1.506,1.506,0,0,0-.924-1.384,1.579,1.579,0,0,0-.619-.111H33.809a1.5,1.5,0,0,0-1.384.925,1.593,1.593,0,0,0-.111.62v2.476a4.621,4.621,0,0,0,.429,1.936l.89,1.914c.2.371.2.371.193,7.829,0,2.446-.006,5.71-.006,10.074a2.011,2.011,0,0,0,1.489,1.94Z" transform="translate(-31.166 -51.022)" fill="#3762cc"/></g><g transform="translate(31.854 70.818)"><path d="M113.383,153.707l.222-1.975h0l.854-8.208h-.275a3.443,3.443,0,0,1-3.443-3.443v-6.044a4.23,4.23,0,0,0-.454-.026h-1.307a3.693,3.693,0,0,1-7.38,0h-1.311a4.176,4.176,0,0,0-.5.032v6.037a3.443,3.443,0,0,1-3.443,3.443h-.229l.854,8.208.223,1.974a2.865,2.865,0,0,1-.065,1.008l-.736,2.992h17.789l-.736-2.994a2.871,2.871,0,0,1-.065-1.005Z" transform="translate(-96.119 -134.011)" fill="#4671c6"/></g><g transform="translate(31.28 70.245)"><g transform="translate(0 0)"><path d="M112.757,156.855H94.968a.574.574,0,0,1-.557-.711l.736-2.992a2.285,2.285,0,0,0,.052-.806l-.223-1.974-.855-8.214a.574.574,0,0,1,.571-.633h.229a2.872,2.872,0,0,0,2.869-2.869v-6.037a.574.574,0,0,1,.506-.57,4.774,4.774,0,0,1,.565-.036h1.312a.574.574,0,0,1,.573.549,3.119,3.119,0,0,0,6.233,0,.574.574,0,0,1,.573-.549h1.307a4.72,4.72,0,0,1,.516.029.573.573,0,0,1,.512.57v6.043a2.872,2.872,0,0,0,2.869,2.869h.272a.576.576,0,0,1,.573.633l-.849,8.158a.505.505,0,0,1,0,.055l-.222,1.976a2.283,2.283,0,0,0,.052.8l.736,2.994a.573.573,0,0,1-.557.71ZM95.7,155.707h16.325l-.561-2.283a3.421,3.421,0,0,1-.078-1.206l.216-1.925c0-.015,0-.03,0-.046l.79-7.591a4.022,4.022,0,0,1-3.656-4v-5.5h-.672a4.267,4.267,0,0,1-8.409,0h-.721v5.5a4.022,4.022,0,0,1-3.611,4l.79,7.6.223,1.969a3.434,3.434,0,0,1-.078,1.21Zm16.256-3.425h0Z" transform="translate(-94.117 -132.013)" fill="#3762cc"/></g></g><g transform="translate(59.595 47.584)"><path d="M199.359,53.021h-4.42a2.153,2.153,0,0,0-.844.157,2.074,2.074,0,0,0-1.273,1.912c0,1.193-.014,1.972,0,2.559a1.1,1.1,0,0,0,1.1,1.057h6.405a1.092,1.092,0,0,0,1.1-1.077v-.012c0-2.659.046-2.843-.156-3.32A2.074,2.074,0,0,0,199.359,53.021Z" transform="translate(-192.816 -53.021)" fill="#f9cfcf"/></g><g transform="translate(59.021 47.009)"><g transform="translate(0 0)"><path d="M198.9,57.852h-6.4a1.661,1.661,0,0,1-1.672-1.612c-.013-.4-.01-.894-.007-1.517,0-.313,0-.663,0-1.059a2.652,2.652,0,0,1,1.622-2.44,2.715,2.715,0,0,1,1.069-.2h4.42a2.652,2.652,0,0,1,2.441,1.625c.211.5.21.743.2,2.327,0,.335,0,.736,0,1.217a1.668,1.668,0,0,1-1.673,1.662Zm-5.391-5.684a1.582,1.582,0,0,0-.619.112,1.506,1.506,0,0,0-.924,1.384c0,.4,0,.75,0,1.065,0,.612,0,1.1.007,1.476a.519.519,0,0,0,.525.5h6.4a.516.516,0,0,0,.525-.5c0-.494,0-.9,0-1.233.006-1.5,0-1.608-.114-1.875a1.506,1.506,0,0,0-1.384-.925Z" transform="translate(-190.816 -51.02)" fill="#3762cc"/></g></g><g transform="translate(13.794 47.583)"><path d="M41.774,57.615V55.089A2.074,2.074,0,0,0,40.5,53.177a2.151,2.151,0,0,0-.844-.157h-4.42A2.074,2.074,0,0,0,33.323,54.3a2.161,2.161,0,0,0-.156.844v2.487A1.1,1.1,0,0,0,34.275,58.7h6.391a1.1,1.1,0,0,0,1.108-1.078v-.011Z" transform="translate(-33.167 -53.02)" fill="#f9cfcf"/></g><g transform="translate(13.22 47.009)"><g transform="translate(0 0)"><path d="M39.239,57.851H32.849a1.671,1.671,0,0,1-1.682-1.65V53.712a2.725,2.725,0,0,1,.2-1.068,2.651,2.651,0,0,1,2.441-1.625h4.42a2.715,2.715,0,0,1,1.069.2,2.651,2.651,0,0,1,1.622,2.44V56.2A1.671,1.671,0,0,1,39.239,57.851Zm-5.43-5.684a1.5,1.5,0,0,0-1.384.925,1.586,1.586,0,0,0-.111.62v2.476a.53.53,0,0,0,.534.515h6.391a.528.528,0,0,0,.534-.505l.574-.01h-.574V53.662a1.506,1.506,0,0,0-.924-1.384,1.587,1.587,0,0,0-.619-.111h-4.42Z" transform="translate(-31.167 -51.019)" fill="#3762cc"/></g></g><g transform="translate(6.573 90.482)"><g transform="translate(0 0)"><path d="M53.9,202.552c-5.737,0-5.737,3.443-11.475,3.443s-5.738-3.443-11.475-3.443-5.737,3.443-11.475,3.443S13.736,202.552,8,202.552v11.475a1.721,1.721,0,0,0,1.721,1.721H75.13a1.721,1.721,0,0,0,1.721-1.721V202.552c-5.738,0-5.738,3.443-11.477,3.443S59.637,202.552,53.9,202.552Z" transform="translate(-7.999 -202.552)" fill="#a4c9ff"/></g></g><g transform="translate(6 89.908)"><g transform="translate(0 0)"><path d="M73.7,214.9H8.3A2.3,2.3,0,0,1,6,212.6V201.126a.574.574,0,0,1,.574-.574,10.249,10.249,0,0,1,6.032,1.8,9.167,9.167,0,0,0,5.442,1.64,9.167,9.167,0,0,0,5.442-1.64,10.249,10.249,0,0,1,6.032-1.8,10.251,10.251,0,0,1,6.033,1.8A9.168,9.168,0,0,0,41,203.995a9.168,9.168,0,0,0,5.442-1.64,10.995,10.995,0,0,1,12.066,0,9.855,9.855,0,0,0,10.886,0,10.254,10.254,0,0,1,6.033-1.8.574.574,0,0,1,.574.574V212.6A2.3,2.3,0,0,1,73.7,214.9ZM7.148,201.712V212.6A1.149,1.149,0,0,0,8.3,213.749H73.7a1.149,1.149,0,0,0,1.148-1.148V201.712a9.151,9.151,0,0,0-4.869,1.627,11,11,0,0,1-12.067,0,9.854,9.854,0,0,0-10.885,0,10.251,10.251,0,0,1-6.033,1.8,10.251,10.251,0,0,1-6.033-1.8,9.168,9.168,0,0,0-5.443-1.64,9.167,9.167,0,0,0-5.442,1.64,10.251,10.251,0,0,1-6.033,1.8,10.25,10.25,0,0,1-6.032-1.8A9.148,9.148,0,0,0,7.148,201.712Z" transform="translate(-6 -200.552)" fill="#3762cc"/></g></g></g></svg>