<svg xmlns="http://www.w3.org/2000/svg" width="70" height="60.59" viewBox="0 0 70 60.59"><g transform="translate(-6 -39.345)"><g transform="translate(6.573 66.658)"><g transform="translate(0 0)"><path d="M76.85,134.552c-5.738,0-5.738,3.443-11.476,3.443s-5.738-3.443-11.476-3.443-5.737,3.443-11.474,3.443-5.738-3.443-11.475-3.443-5.737,3.443-11.474,3.443S13.736,134.552,8,134.552v21.229h68.85V134.552Z" transform="translate(-7.999 -134.552)" fill="#a4c9ff"/></g></g><g transform="translate(6 66.084)"><g transform="translate(0 0)"><path d="M75.424,154.928H6.574A.574.574,0,0,1,6,154.355V133.126a.574.574,0,0,1,.574-.574,10.249,10.249,0,0,1,6.032,1.8,9.167,9.167,0,0,0,5.442,1.639,9.167,9.167,0,0,0,5.442-1.639,10.249,10.249,0,0,1,6.032-1.8,10.251,10.251,0,0,1,6.033,1.8A9.168,9.168,0,0,0,41,135.995a9.167,9.167,0,0,0,5.442-1.639,10.995,10.995,0,0,1,12.066,0,9.855,9.855,0,0,0,10.886,0,10.253,10.253,0,0,1,6.033-1.8.574.574,0,0,1,.574.574v21.229A.574.574,0,0,1,75.424,154.928ZM7.148,153.781h67.7V133.712a9.15,9.15,0,0,0-4.869,1.627,11,11,0,0,1-12.067,0,9.854,9.854,0,0,0-10.885,0,10.25,10.25,0,0,1-6.032,1.8,10.25,10.25,0,0,1-6.032-1.8,9.168,9.168,0,0,0-5.442-1.64,9.166,9.166,0,0,0-5.442,1.64,10.251,10.251,0,0,1-6.032,1.8,10.249,10.249,0,0,1-6.032-1.8,9.146,9.146,0,0,0-4.868-1.627v20.069Z" transform="translate(-6 -132.552)" fill="#3762cc"/></g></g><g transform="translate(30.05 53.987)"><path d="M102.812,90.646l-.366-.263H91.582v.263l-.036,0a1.7,1.7,0,1,0,0,3.4,1.769,1.769,0,0,0,.184-.01,5.626,5.626,0,0,0,10.933,0,1.769,1.769,0,0,0,.184.01,1.7,1.7,0,1,0-.036-3.394Z" transform="translate(-89.834 -90.383)" fill="#f9cfcf"/></g><g transform="translate(30.69 53.987)"><path d="M92.066,90.383l.079.578a1.714,1.714,0,0,1,.994-.317l.036,0v-.263Z" transform="translate(-92.066 -90.383)" fill="#3762cc"/></g><g transform="translate(42.662 53.987)"><g transform="translate(0 0)"><path d="M134.164,90.646a1.7,1.7,0,0,1,.866.213l.052-.477H133.8Z" transform="translate(-133.798 -90.382)" fill="#3762cc"/></g></g><g transform="translate(35.935 57.866)"><g transform="translate(0)"><path d="M111.827,105.583a1.6,1.6,0,0,1-1.135-.444,1.142,1.142,0,0,1-.345-.8.43.43,0,1,1,.861,0,.292.292,0,0,0,.095.2.856.856,0,0,0,1.044,0,.292.292,0,0,0,.095-.2.43.43,0,0,1,.861,0,1.141,1.141,0,0,1-.345.8A1.594,1.594,0,0,1,111.827,105.583Z" transform="translate(-110.347 -103.906)" fill="#3762cc"/></g></g><g transform="translate(30.586 45.584)"><g transform="translate(0 0)"><path d="M98.59,61.091A6.587,6.587,0,0,0,91.7,67.667v1.828h13.465V67.667a6.576,6.576,0,0,0-6.576-6.576Z" transform="translate(-91.701 -61.091)" fill="#4671c6"/></g></g><g transform="translate(30.012 45.01)"><g transform="translate(0 0)"><path d="M103.739,68.641H90.275a.574.574,0,0,1-.574-.574V66.24a7.308,7.308,0,0,1,14.612,0v1.828A.574.574,0,0,1,103.739,68.641ZM90.848,67.493h12.317V66.24a6.161,6.161,0,0,0-12.317,0Z" transform="translate(-89.701 -59.09)" fill="#3762cc"/></g></g><g transform="translate(29.476 53.413)"><path d="M95.771,97.473a6.153,6.153,0,0,1-5.9-4.3,2.269,2.269,0,0,1-.22-4.48.574.574,0,0,1,.51-.311H101.02a.573.573,0,0,1,.335.108l.222.16a2.3,2.3,0,0,1,1.446.644,2.245,2.245,0,0,1,.685,1.621,2.28,2.28,0,0,1-2.032,2.257A6.153,6.153,0,0,1,95.771,97.473ZM90.3,92.03a.573.573,0,0,1,.558.442,5.052,5.052,0,0,0,9.816,0,.573.573,0,0,1,.619-.439,1.163,1.163,0,0,0,.123.007,1.133,1.133,0,0,0,1.139-1.124,1.107,1.107,0,0,0-.339-.8,1.136,1.136,0,0,0-.821-.323.559.559,0,0,1-.351-.108l-.216-.155h-10.2a.567.567,0,0,1-.082.1.558.558,0,0,1-.414.163l-.044,0a1.124,1.124,0,1,0,.022,2.248,1.162,1.162,0,0,0,.123-.007C90.264,92.031,90.285,92.03,90.3,92.03Z" transform="translate(-87.834 -88.383)" fill="#3762cc"/></g><g transform="translate(31.846 53.489)"><g transform="translate(0 0)"><path d="M99.651,92.247H97.715a1.621,1.621,0,0,1-1.621-1.621v-.358a1.621,1.621,0,0,1,1.621-1.621h1.936a1.621,1.621,0,0,1,1.621,1.621v.358A1.621,1.621,0,0,1,99.651,92.247Z" transform="translate(-96.094 -88.646)" fill="#e0ebfc"/></g></g><g transform="translate(32.83 54.29)"><g transform="translate(0 0)"><path d="M100.4,93.438a.873.873,0,0,1-.873-.873v-.254a.873.873,0,0,1,.873-.873h1.464a.873.873,0,0,1,.873.873v.254a.873.873,0,0,1-.873.873Z" transform="translate(-99.526 -91.439)" fill="#4671c6"/></g></g><g transform="translate(37.801 53.489)"><g transform="translate(0 0)"><path d="M120.408,92.247h-1.936a1.621,1.621,0,0,1-1.621-1.621v-.358a1.621,1.621,0,0,1,1.621-1.621h1.936a1.621,1.621,0,0,1,1.621,1.621v.358A1.621,1.621,0,0,1,120.408,92.247Z" transform="translate(-116.851 -88.646)" fill="#e0ebfc"/></g></g><g transform="translate(38.785 54.29)"><g transform="translate(0 0)"><path d="M121.156,93.438a.873.873,0,0,1-.873-.873v-.254a.873.873,0,0,1,.873-.873h1.464a.873.873,0,0,1,.873.873v.254a.873.873,0,0,1-.873.873Z" transform="translate(-120.283 -91.439)" fill="#4671c6"/></g></g><g transform="translate(37.227 52.915)"><g transform="translate(0)"><path d="M118.982,91.4h-1.936a2.2,2.2,0,0,1-2.195-2.195v-.358a2.2,2.2,0,0,1,2.195-2.195h1.936a2.2,2.2,0,0,1,2.195,2.195V89.2A2.2,2.2,0,0,1,118.982,91.4Zm-1.936-3.6A1.049,1.049,0,0,0,116,88.843V89.2a1.049,1.049,0,0,0,1.047,1.047h1.936a1.049,1.049,0,0,0,1.047-1.047v-.358a1.049,1.049,0,0,0-1.047-1.047Z" transform="translate(-114.851 -86.648)" fill="#3762cc"/></g></g><g transform="translate(31.272 52.915)"><g transform="translate(0)"><path d="M98.225,91.4H96.289a2.2,2.2,0,0,1-2.2-2.195v-.358a2.2,2.2,0,0,1,2.2-2.195h1.936a2.2,2.2,0,0,1,2.2,2.195V89.2A2.2,2.2,0,0,1,98.225,91.4Zm-1.936-3.6a1.049,1.049,0,0,0-1.048,1.047V89.2a1.049,1.049,0,0,0,1.048,1.047h1.936A1.049,1.049,0,0,0,99.273,89.2v-.358A1.049,1.049,0,0,0,98.225,87.8Z" transform="translate(-94.094 -86.648)" fill="#3762cc"/></g></g><g transform="translate(35.987 54.541)"><g transform="translate(0)"><path d="M112.52,94.111h-1.13a.574.574,0,0,1-.34-.112l-.288-.212a.574.574,0,0,1-.234-.462v-.437a.574.574,0,0,1,.574-.574h1.705a.574.574,0,0,1,.574.574v.437a.574.574,0,0,1-.234.462L112.86,94A.574.574,0,0,1,112.52,94.111Z" transform="translate(-110.529 -92.315)" fill="#3762cc"/></g></g><g transform="translate(6.574 39.919)"><g transform="translate(0 0)"><path d="M52.781,56.994,45.741,45.145l-1.707-2.561a2.234,2.234,0,0,0-1.756-.992L36.9,41.347a.152.152,0,0,0-.159.152,1.008,1.008,0,0,0,.6.919l4.958,2.22H40.339a.647.647,0,0,0-.647.647.152.152,0,0,0,.11.146l3.249.933L47.626,57a.585.585,0,0,1-.063.574L42.936,64a6.9,6.9,0,0,0-1.462-.057H41.44V62.719a5.628,5.628,0,0,1-5.2,0v1.223H17.947l-4.436-.721a1.219,1.219,0,0,0-.365,0l-5.015.707A.152.152,0,0,0,8,64.075,1.133,1.133,0,0,0,8.991,65.2l5,.633-.788.2a.706.706,0,0,0-.531.684.152.152,0,0,0,.152.152h5.126l14.065,1.723.364,2.054H45.3l7.452-11.74a1.829,1.829,0,0,0,.028-1.913Z" transform="translate(-8 -41.346)" fill="#f9cfcf"/></g></g><g transform="translate(30.95 62.512)"><g transform="translate(0 0)"><path d="M105.894,126.808v-.056a2.931,2.931,0,0,1-2.364-2.875v-3.716a8.425,8.425,0,0,0-1.493-.057h0a2.6,2.6,0,0,1-5.2,0h-1.5v3.773a2.931,2.931,0,0,1-2.367,2.875v.055l.6,7.087v3.479h11.721v-3.479l.6-7.087Z" transform="translate(-92.971 -120.1)" fill="#4671c6"/></g></g><g transform="translate(6 39.345)"><g transform="translate(0)"><path d="M43.273,80.359H31.552a.574.574,0,0,1-.574-.574V76.331l-.6-7.037-.286-1.61L16.485,66.017h-5.09a.727.727,0,0,1-.726-.726,1.279,1.279,0,0,1,.116-.532l-3.293-.417A1.71,1.71,0,0,1,6,62.648a.729.729,0,0,1,.624-.719l5.015-.707a1.787,1.787,0,0,1,.538.006l4.39.714H34.239v-.649a.574.574,0,0,1,.838-.509,5.054,5.054,0,0,0,4.672,0,.574.574,0,0,1,.838.509v.647c.278,0,.473,0,.659.016l4.425-6.145-4.466-10.4-2.988-.857a.73.73,0,0,1-.526-.7,1.222,1.222,0,0,1,.725-1.115l-2.742-1.228a1.583,1.583,0,0,1-.935-1.443.726.726,0,0,1,.759-.726l5.379.246a2.817,2.817,0,0,1,2.208,1.247L44.792,43.4l.016.025,7.039,11.849a2.389,2.389,0,0,1-.037,2.513L44.435,69.405l-.588,6.925v3.455A.573.573,0,0,1,43.273,80.359ZM32.126,79.212H42.7V76.306c0-.016,0-.032,0-.048l.6-7.051a.568.568,0,0,1,.089-.295l7.452-11.74a1.247,1.247,0,0,0,.02-1.312L43.829,44.025l-1.7-2.549a1.666,1.666,0,0,0-1.3-.737l-4.54-.207L41.1,42.688a.574.574,0,0,1-.234,1.1H39.692l2.092.6a.575.575,0,0,1,.369.325l4.575,10.636a1.166,1.166,0,0,1-.124,1.136l-4.628,6.426a.576.576,0,0,1-.577.227,4.155,4.155,0,0,0-.933-.047h-.448a.577.577,0,0,1-.577-.574v-.352a6.231,6.231,0,0,1-4.054,0v.352a.574.574,0,0,1-.172.409.536.536,0,0,1-.412.164H16.52a.584.584,0,0,1-.092-.007l-4.436-.721a.656.656,0,0,0-.194,0L7.27,63a.558.558,0,0,0,.366.206l5,.633a.574.574,0,0,1,.265,1.033h3.621a.565.565,0,0,1,.07,0L30.656,66.6a.574.574,0,0,1,.5.469l.364,2.054a.453.453,0,0,1,.007.052l.6,7.087c0,.016,0,.032,0,.048Z" transform="translate(-6 -39.345)" fill="#3762cc"/></g></g><g transform="translate(6.573 75.838)"><g transform="translate(0 0)"><path d="M76.85,166.552c-5.738,0-5.738,3.443-11.476,3.443s-5.738-3.443-11.476-3.443-5.737,3.443-11.474,3.443-5.738-3.443-11.475-3.443-5.737,3.443-11.474,3.443S13.736,166.552,8,166.552v21.229h68.85V166.552Z" transform="translate(-7.999 -166.552)" fill="#e0ebfc"/></g></g><g transform="translate(6 75.264)"><g transform="translate(0 0)"><path d="M75.424,186.928H6.574A.574.574,0,0,1,6,186.355V165.126a.574.574,0,0,1,.574-.574,10.249,10.249,0,0,1,6.032,1.8,9.167,9.167,0,0,0,5.442,1.64,9.167,9.167,0,0,0,5.442-1.64,10.249,10.249,0,0,1,6.032-1.8,10.251,10.251,0,0,1,6.033,1.8A9.168,9.168,0,0,0,41,167.995a9.167,9.167,0,0,0,5.442-1.64,10.995,10.995,0,0,1,12.066,0,9.855,9.855,0,0,0,10.886,0,10.253,10.253,0,0,1,6.033-1.8.574.574,0,0,1,.574.574v21.229A.574.574,0,0,1,75.424,186.928ZM7.148,185.781h67.7V165.712a9.15,9.15,0,0,0-4.869,1.627,11,11,0,0,1-12.067,0,9.854,9.854,0,0,0-10.885,0,10.25,10.25,0,0,1-6.032,1.8,10.249,10.249,0,0,1-6.032-1.8,9.168,9.168,0,0,0-5.442-1.639,9.167,9.167,0,0,0-5.442,1.639,10.251,10.251,0,0,1-6.032,1.8,10.249,10.249,0,0,1-6.032-1.8,9.146,9.146,0,0,0-4.868-1.627v20.069Z" transform="translate(-6 -164.552)" fill="#3762cc"/></g></g><g transform="translate(48.641 62.441)"><g transform="translate(0 0)"><path d="M170.76,120.179l-.455-.327h-13.5v.327l-.044,0a2.109,2.109,0,1,0,0,4.218,2.143,2.143,0,0,0,.228-.013,6.989,6.989,0,0,0,13.581,0,2.143,2.143,0,0,0,.228.013,2.108,2.108,0,1,0-.044-4.215Z" transform="translate(-154.638 -119.852)" fill="#f9cfcf"/></g></g><g transform="translate(49.437 62.441)"><g transform="translate(0 0)"><path d="M157.412,119.852l.1.718a2.128,2.128,0,0,1,1.235-.393l.044,0v-.327Z" transform="translate(-157.412 -119.852)" fill="#3762cc"/></g></g><g transform="translate(64.308 62.441)"><g transform="translate(0 0)"><path d="M209.707,120.179a2.107,2.107,0,0,1,1.076.265l.065-.592h-1.595Z" transform="translate(-209.252 -119.852)" fill="#3762cc"/></g></g><g transform="translate(56.056 67.364)"><path d="M182.22,138.889a1.881,1.881,0,0,1-1.336-.52,1.313,1.313,0,0,1-.4-.924.43.43,0,1,1,.861,0,.462.462,0,0,0,.148.318,1.034,1.034,0,0,0,.725.266,1.013,1.013,0,0,0,.72-.266.463.463,0,0,0,.148-.318.43.43,0,1,1,.861,0,1.314,1.314,0,0,1-.4.924,1.878,1.878,0,0,1-1.332.52Z" transform="translate(-180.486 -137.014)" fill="#3762cc"/></g><g transform="translate(49.307 52.002)"><g transform="translate(0 0)"><path d="M165.516,83.465a8.183,8.183,0,0,0-8.557,8.169V93.9h16.726v-2.27A8.168,8.168,0,0,0,165.516,83.465Z" transform="translate(-156.959 -83.465)" fill="#4671c6"/></g></g><g transform="translate(48.733 51.429)"><g transform="translate(0 0)"><path d="M172.258,93.051H155.533a.574.574,0,0,1-.574-.574v-2.27a8.939,8.939,0,0,1,17.874,0v2.27A.574.574,0,0,1,172.258,93.051ZM156.106,91.9h15.578v-1.7a7.792,7.792,0,0,0-15.579,0v1.7Z" transform="translate(-154.959 -81.465)" fill="#3762cc"/></g></g><g transform="translate(48.067 61.867)"><g transform="translate(0 0)"><path d="M162.36,128.867a7.5,7.5,0,0,1-7.23-5.332,2.681,2.681,0,0,1-.282-5.313.574.574,0,0,1,.536-.369h13.5a.575.575,0,0,1,.335.108l.308.222a2.717,2.717,0,0,1,1.748.764,2.651,2.651,0,0,1,.809,1.914,2.694,2.694,0,0,1-2.491,2.675,7.5,7.5,0,0,1-7.23,5.332Zm-6.79-6.484a.573.573,0,0,1,.558.442,6.415,6.415,0,0,0,12.465,0,.573.573,0,0,1,.619-.439,1.551,1.551,0,0,0,1.722-1.526,1.512,1.512,0,0,0-.462-1.092,1.558,1.558,0,0,0-1.121-.441.556.556,0,0,1-.351-.108l-.3-.219H155.9a.578.578,0,0,1-.116.163.556.556,0,0,1-.413.164l-.051,0a1.535,1.535,0,1,0,.185,3.061.559.559,0,0,1,.061,0Z" transform="translate(-152.639 -117.853)" fill="#3762cc"/></g></g><g transform="translate(50.872 61.822)"><path d="M166.835,122.169h-2.4a2.014,2.014,0,0,1-2.014-2.014v-.445a2.014,2.014,0,0,1,2.014-2.014h2.4a2.014,2.014,0,0,1,2.014,2.014v.445A2.015,2.015,0,0,1,166.835,122.169Z" transform="translate(-162.416 -117.696)" fill="#e0ebfc"/></g><g transform="translate(52.095 62.818)"><g transform="translate(0 0)"><path d="M167.763,123.648a1.084,1.084,0,0,1-1.084-1.084v-.315a1.084,1.084,0,0,1,1.084-1.084h1.819a1.084,1.084,0,0,1,1.084,1.084v.315a1.084,1.084,0,0,1-1.084,1.084Z" transform="translate(-166.679 -121.165)" fill="#4671c6"/></g></g><g transform="translate(58.269 61.822)"><path d="M192.619,122.169h-2.4a2.014,2.014,0,0,1-2.014-2.014v-.445a2.014,2.014,0,0,1,2.014-2.014h2.4a2.014,2.014,0,0,1,2.014,2.014v.445A2.014,2.014,0,0,1,192.619,122.169Z" transform="translate(-188.2 -117.696)" fill="#e0ebfc"/></g><g transform="translate(59.492 62.818)"><g transform="translate(0 0)"><path d="M193.548,123.648a1.084,1.084,0,0,1-1.084-1.084v-.315a1.084,1.084,0,0,1,1.084-1.084h1.819a1.084,1.084,0,0,1,1.084,1.084v.315a1.084,1.084,0,0,1-1.084,1.084Z" transform="translate(-192.464 -121.165)" fill="#4671c6"/></g></g><g transform="translate(57.695 61.249)"><g transform="translate(0 0)"><path d="M191.193,121.316h-2.4a2.591,2.591,0,0,1-2.588-2.588v-.445a2.591,2.591,0,0,1,2.588-2.588h2.4a2.591,2.591,0,0,1,2.588,2.588v.445A2.591,2.591,0,0,1,191.193,121.316Zm-2.4-4.473a1.442,1.442,0,0,0-1.44,1.44v.445a1.442,1.442,0,0,0,1.44,1.44h2.4a1.442,1.442,0,0,0,1.44-1.44v-.445a1.442,1.442,0,0,0-1.44-1.44Z" transform="translate(-186.2 -115.696)" fill="#3762cc"/></g></g><g transform="translate(50.298 61.249)"><g transform="translate(0 0)"><path d="M165.409,121.316H163a2.591,2.591,0,0,1-2.588-2.588v-.445A2.591,2.591,0,0,1,163,115.7h2.4A2.591,2.591,0,0,1,168,118.284v.445A2.591,2.591,0,0,1,165.409,121.316Zm-2.4-4.473a1.442,1.442,0,0,0-1.44,1.44v.445a1.442,1.442,0,0,0,1.44,1.44h2.4a1.442,1.442,0,0,0,1.44-1.44v-.445a1.442,1.442,0,0,0-1.44-1.44Z" transform="translate(-160.416 -115.696)" fill="#3762cc"/></g></g><g transform="translate(56.155 63.268)"><path d="M183.166,124.689h-1.4a.574.574,0,0,1-.34-.112l-.357-.263a.574.574,0,0,1-.234-.462v-.542a.574.574,0,0,1,.574-.574h2.119a.574.574,0,0,1,.574.574v.542a.574.574,0,0,1-.234.462l-.357.263a.574.574,0,0,1-.34.112Z" transform="translate(-180.831 -122.736)" fill="#3762cc"/></g><g transform="translate(19.479 44.966)"><g transform="translate(0 0)"><path d="M108.611,78.376,99.867,63.658l-2.121-3.181a2.774,2.774,0,0,0-2.182-1.232l-6.682-.305a.189.189,0,0,0-.2.189,1.252,1.252,0,0,0,.74,1.142l6.159,2.758H93.156a.8.8,0,0,0-.8.8.19.19,0,0,0,.137.182l4.036,1.158,5.683,13.212a.728.728,0,0,1-.078.713l-5.748,7.983a8.549,8.549,0,0,0-1.816-.071h-.042V85.489a6.991,6.991,0,0,1-6.461,0v1.519H65.34l-5.51-.9a1.515,1.515,0,0,0-.454,0l-6.229.878a.189.189,0,0,0-.163.187,1.407,1.407,0,0,0,1.23,1.4l6.208.786-.979.25a.877.877,0,0,0-.66.85.189.189,0,0,0,.189.189H65.34l17.472,2.141.453,2.551H99.318l9.258-14.584a2.27,2.27,0,0,0,.035-2.376Z" transform="translate(-52.984 -58.938)" fill="#f9cfcf"/></g></g><g transform="translate(49.759 73.031)"><path d="M169.8,156.771a3.233,3.233,0,0,1-6.461,0h-1.858v4.687a3.641,3.641,0,0,1-2.94,3.572v.069l.748,8.8h14.56l.748-8.8h0v-.069a3.641,3.641,0,0,1-2.936-3.571v-4.616a10.458,10.458,0,0,0-1.854-.071Z" transform="translate(-158.537 -156.766)" fill="#4671c6"/></g><g transform="translate(18.905 44.393)"><g transform="translate(0 0)"><path d="M97.146,103.288H82.585a.574.574,0,0,1-.572-.525l-.746-8.777-.374-2.108L63.878,89.793H57.546a.764.764,0,0,1-.763-.763,1.446,1.446,0,0,1,.223-.774l-4.291-.544a1.985,1.985,0,0,1-1.732-1.965.766.766,0,0,1,.656-.755l6.229-.878a2.094,2.094,0,0,1,.627.007l5.464.889h22.1v-.946a.574.574,0,0,1,.838-.509,6.419,6.419,0,0,0,5.932,0,.574.574,0,0,1,.838.509v.944a9.943,9.943,0,0,1,1.024.026l5.543-7.7a.155.155,0,0,0,.017-.151L94.679,64.222,90.9,63.139a.766.766,0,0,1-.552-.733,1.379,1.379,0,0,1,1.158-1.36l-3.747-1.678A1.827,1.827,0,0,1,86.684,57.7a.762.762,0,0,1,.8-.762l6.681.3A3.359,3.359,0,0,1,96.8,58.733l2.121,3.181.016.025,8.744,14.718a2.83,2.83,0,0,1-.044,2.976L98.453,94.1l-.736,8.667a.573.573,0,0,1-.571.525Zm-14.033-1.147H96.619l.7-8.237a.567.567,0,0,1,.089-.3l9.258-14.584a1.688,1.688,0,0,0,.026-1.775L97.954,62.539,95.842,59.37a2.209,2.209,0,0,0-1.731-.977l-6.142-.281a.678.678,0,0,0,.263.209l6.159,2.758a.574.574,0,0,1-.234,1.1H91.711l3.546,1.018a.575.575,0,0,1,.369.325l5.683,13.212a1.309,1.309,0,0,1-.14,1.275l-5.748,7.983a.577.577,0,0,1-.577.227,5.342,5.342,0,0,0-1.211-.061H93.1a.578.578,0,0,1-.578-.574v-.635a7.576,7.576,0,0,1-5.314,0v.635a.573.573,0,0,1-.171.409.58.58,0,0,1-.411.165H63.913a.583.583,0,0,1-.092-.007l-5.51-.9a.938.938,0,0,0-.282,0l-5.832.822a.835.835,0,0,0,.663.5l6.208.786a.574.574,0,0,1,.07,1.125l-.625.16h5.4a.563.563,0,0,1,.07,0L81.454,90.79a.574.574,0,0,1,.5.469l.453,2.551a.454.454,0,0,1,.007.052Zm24.037-22.814h0Z" transform="translate(-50.983 -56.94)" fill="#3762cc"/></g></g><g transform="translate(6.573 86.166)"><g transform="translate(0)"><path d="M53.9,202.552c-5.737,0-5.737,3.443-11.474,3.443s-5.738-3.443-11.475-3.443-5.737,3.443-11.474,3.443S13.736,202.552,8,202.552v11.475a1.721,1.721,0,0,0,1.721,1.721H75.128a1.721,1.721,0,0,0,1.721-1.721V202.552c-5.738,0-5.738,3.443-11.476,3.443S59.635,202.552,53.9,202.552Z" transform="translate(-7.999 -202.552)" fill="#a4c9ff"/></g></g><g transform="translate(6 85.592)"><g transform="translate(0)"><path d="M73.7,214.9H8.3A2.3,2.3,0,0,1,6,212.6V201.126a.574.574,0,0,1,.574-.574,10.249,10.249,0,0,1,6.032,1.8,9.167,9.167,0,0,0,5.442,1.639,9.167,9.167,0,0,0,5.442-1.639,10.249,10.249,0,0,1,6.032-1.8,10.251,10.251,0,0,1,6.033,1.8A9.168,9.168,0,0,0,41,203.994a9.167,9.167,0,0,0,5.442-1.639,10.995,10.995,0,0,1,12.066,0,9.855,9.855,0,0,0,10.886,0,10.253,10.253,0,0,1,6.033-1.8.574.574,0,0,1,.574.574V212.6A2.3,2.3,0,0,1,73.7,214.9ZM7.148,201.712V212.6A1.149,1.149,0,0,0,8.3,213.749H73.7A1.149,1.149,0,0,0,74.85,212.6V201.712a9.15,9.15,0,0,0-4.869,1.627,11,11,0,0,1-12.067,0,9.854,9.854,0,0,0-10.885,0,10.25,10.25,0,0,1-6.032,1.8,10.249,10.249,0,0,1-6.032-1.8,9.168,9.168,0,0,0-5.442-1.639,9.167,9.167,0,0,0-5.442,1.639,10.251,10.251,0,0,1-6.032,1.8,10.249,10.249,0,0,1-6.032-1.8,9.146,9.146,0,0,0-4.868-1.627Z" transform="translate(-6 -200.552)" fill="#3762cc"/></g></g></g></svg>