<svg xmlns="http://www.w3.org/2000/svg" width="70" height="58.022" viewBox="0 0 70 58.022"><g transform="translate(-6 -5.829)"><g transform="translate(6.573 20.289)"><g transform="translate(0)"><path d="M76.852,66.724c-5.738,0-5.738,2.85-11.477,2.85s-5.738-2.85-11.477-2.85-5.737,2.85-11.475,2.85-5.738-2.85-11.475-2.85-5.737,2.85-11.475,2.85S13.736,66.724,8,66.724V84.3H76.851V66.724Z" transform="translate(-7.999 -66.724)" fill="#e0ebfc"/></g></g><g transform="translate(6.573 28.363)"><g transform="translate(0)"><path d="M65.375,103.574c-5.738,0-5.738-2.85-11.477-2.85s-5.737,2.85-11.475,2.85-5.738-2.85-11.475-2.85-5.737,2.85-11.475,2.85-5.737-2.85-11.475-2.85v33.589a1.594,1.594,0,0,0,1.721,1.425H75.13a1.594,1.594,0,0,0,1.721-1.425V100.724C71.113,100.724,71.113,103.574,65.375,103.574Z" transform="translate(-7.999 -100.724)" fill="#a4c9ff"/></g></g><g transform="translate(6 19.814)"><g transform="translate(0)"><path d="M73.7,108.761H8.3a2.128,2.128,0,0,1-2.3-1.9V65.2a.532.532,0,0,1,.574-.475,11.777,11.777,0,0,1,6.032,1.492,10.529,10.529,0,0,0,5.442,1.357,10.529,10.529,0,0,0,5.442-1.357,11.777,11.777,0,0,1,6.032-1.492,11.779,11.779,0,0,1,6.033,1.492A10.53,10.53,0,0,0,41,67.574a10.53,10.53,0,0,0,5.442-1.357,11.779,11.779,0,0,1,6.033-1.492,11.779,11.779,0,0,1,6.033,1.492,11.594,11.594,0,0,0,10.886,0,11.781,11.781,0,0,1,6.033-1.492A.532.532,0,0,1,76,65.2v41.662a2.128,2.128,0,0,1-2.3,1.9ZM7.148,65.684v41.177a1.064,1.064,0,0,0,1.148.95H73.7a1.064,1.064,0,0,0,1.148-.95V65.684a10.444,10.444,0,0,0-4.869,1.347,12.942,12.942,0,0,1-12.067,0,10.532,10.532,0,0,0-5.443-1.357,10.531,10.531,0,0,0-5.443,1.357A11.778,11.778,0,0,1,41,68.523a11.777,11.777,0,0,1-6.033-1.492,10.53,10.53,0,0,0-5.443-1.357,10.528,10.528,0,0,0-5.442,1.357,11.779,11.779,0,0,1-6.033,1.492,11.777,11.777,0,0,1-6.032-1.492,10.441,10.441,0,0,0-4.868-1.347Z" transform="translate(-6 -64.724)" fill="#3762cc"/></g></g><g transform="translate(17.153 20.327)"><g transform="translate(0)"><path d="M66.86,68.057l-1.465,1.1-2.039,1.491-2.634,1.96a.91.91,0,0,1-.5.172l-8.1.339a.917.917,0,0,1-.606-.188L49.055,70.97a.246.246,0,0,0-.28,0,.488.488,0,0,0-.141.7l.5.7c.089.124-.04.278-.212.251l-3.172-.487a.4.4,0,0,0-.478.292l-.391,2.756a.34.34,0,0,0,.274.359l1.688.47a3.3,3.3,0,0,0,1.363.083l3-.445a.992.992,0,0,1,.283,0l9.124,1.314a2.846,2.846,0,0,0,1.854-.356l4.691-2.822,4.085-6.858a6.593,6.593,0,0,0-1.821.06,6.1,6.1,0,0,0-2.011.719Z" transform="translate(-44.877 -66.883)" fill="#f9cfcf"/></g></g><g transform="translate(16.58 19.853)"><path d="M59.6,75.937a3.587,3.587,0,0,1-.512-.037l-9.124-1.313a.291.291,0,0,0-.084,0l-3,.445a4,4,0,0,1-1.647-.1l-1.688-.47a.823.823,0,0,1-.661-.864l.391-2.756a.8.8,0,0,1,.392-.559,1.149,1.149,0,0,1,.761-.145l2.37.364-.082-.115a.931.931,0,0,1,1.313-1.28l2.459,1.961a.265.265,0,0,0,.179.055l8.1-.339a.269.269,0,0,0,.149-.051l2.633-1.96L63.59,67.28l1.459-1.1.03-.021.549-.359.028-.017a6.727,6.727,0,0,1,2.222-.794,7.271,7.271,0,0,1,2.012-.066.585.585,0,0,1,.432.246.4.4,0,0,1,.009.435l-4.085,6.858a.512.512,0,0,1-.177.174l-4.691,2.822A3.486,3.486,0,0,1,59.6,75.937Zm-9.676-2.3a1.673,1.673,0,0,1,.238.017l9.123,1.313a2.19,2.19,0,0,0,1.418-.272l4.576-2.753,3.634-6.1a5.908,5.908,0,0,0-.8.083,5.458,5.458,0,0,0-1.787.636l-.52.34-1.451,1.09-2.046,1.5-2.63,1.957a1.559,1.559,0,0,1-.858.293l-8.1.339a1.569,1.569,0,0,1-1.033-.32l-1.548-1.235.058.081a.553.553,0,0,1-.031.7.86.86,0,0,1-.779.265l-3-.46-.354,2.5,1.56.435a2.616,2.616,0,0,0,1.078.066l3-.445a1.69,1.69,0,0,1,.245-.018Z" transform="translate(-42.878 -64.885)" fill="#3762cc"/></g><g transform="translate(36.604 9.133)"><path d="M124.481,42.222a2.156,2.156,0,0,1-.432-2.1l.768-2.305V35.32a4.74,4.74,0,0,0-3.854-4.341v-.86c1.943-.323,3.4-1.687,3.405-3.324l.006-3.643c0-1.879-1.915-3.4-4.284-3.407l-2.5,0c-2.144,0-3.884,1.374-3.887,3.075l0,2.362a.238.238,0,0,1-.26.206.712.712,0,0,0-.755.518c-.042.343.3.633.722.633h.291v.57a3.276,3.276,0,0,0,2.8,2.959v1.367a4.452,4.452,0,0,0-2.657,3.889v1.108c0,.808.033,1.616.092,2.422l.962,4.482-.011,3.549H126.14A6.272,6.272,0,0,0,124.481,42.222Z" transform="translate(-112.677 -19.742)" fill="#f9cfcf"/></g><g transform="translate(40.172 35.695)"><path d="M146.107,152.875l-1.4-.971-8.144-10.926-1.257-9.379-10.191,1.253,5.454,9.767,10.655,11.322-2.169,3.161-1.336.657a.67.67,0,0,0-.333.973.911.911,0,0,0,.851.375l2.788-.25a1.318,1.318,0,0,0,.605-.206l4.436-2.926a1.777,1.777,0,0,0,.829-1.274A1.7,1.7,0,0,0,146.107,152.875Z" transform="translate(-125.114 -131.599)" fill="#a4c9ff"/></g><g transform="translate(40.172 35.695)"><path d="M136,136.813l-.7-5.213-10.191,1.253,2.721,4.872.7,1.26,7.6-1.163Z" transform="translate(-125.114 -131.6)" fill="#4671c6"/></g><g transform="translate(39.598 35.22)"><g transform="translate(0 0)"><path d="M136.713,158.061a1.482,1.482,0,0,1-1.263-.634,1.1,1.1,0,0,1,.547-1.6l1.205-.592,1.9-2.775-10.419-11.072a.467.467,0,0,1-.068-.093l-5.454-9.767a.4.4,0,0,1,.016-.425.582.582,0,0,1,.421-.244l10.191-1.253a.668.668,0,0,1,.435.094.463.463,0,0,1,.22.324l1.243,9.273,8.028,10.77,1.329.921a2.145,2.145,0,0,1,.99,1.981,2.246,2.246,0,0,1-1.043,1.6L140.56,157.5a1.958,1.958,0,0,1-.9.307l-2.788.25C136.818,158.059,136.766,158.061,136.713,158.061Zm-7.079-17.215,10.614,11.279a.409.409,0,0,1,.046.526l-2.169,3.161a.53.53,0,0,1-.206.174l-1.336.657a.237.237,0,0,0-.117.344.3.3,0,0,0,.281.124l2.788-.25a.673.673,0,0,0,.31-.105l4.436-2.926a1.325,1.325,0,0,0,.615-.945,1.264,1.264,0,0,0-.584-1.168l-1.4-.971a.511.511,0,0,1-.12-.115L134.648,139.7a.427.427,0,0,1-.082-.2l-1.192-8.889L124.53,131.7Z" transform="translate(-123.114 -129.599)" fill="#3762cc"/></g></g><g transform="translate(39.598 35.22)"><path d="M127.111,137.935a.591.591,0,0,1-.52-.276l-3.424-6.132a.4.4,0,0,1,.016-.425.582.582,0,0,1,.421-.244l10.191-1.253a.668.668,0,0,1,.435.094.464.464,0,0,1,.22.324l.834,6.222a.5.5,0,0,1-.466.52l-7.6,1.163a.715.715,0,0,1-.1.008Zm-2.581-6.23,2.916,5.221,6.638-1.016-.077-.57-.633-4.723Z" transform="translate(-123.114 -129.6)" fill="#3762cc"/></g><g transform="translate(37.429 16.368)"><path d="M116.251,51.3h-.413a.242.242,0,1,1,0-.475h.412a1.018,1.018,0,0,0,.81-.408l.068-.091a.324.324,0,0,1,.4-.077.215.215,0,0,1,.093.327l-.068.091A1.619,1.619,0,0,1,116.251,51.3Z" transform="translate(-115.552 -50.213)" fill="#3762cc"/></g><g transform="translate(38.811 12.765)"><path d="M121.017,37a.6.6,0,0,1-.646-.535v-.891a.658.658,0,0,1,1.293,0v.891a.6.6,0,0,1-.648.534Z" transform="translate(-120.371 -35.039)" fill="#3762cc"/></g><g transform="translate(26.791 36.882)"><g transform="translate(0 0)"><path d="M98.067,157.021,97.7,158.1a.783.783,0,0,1-.765.5.74.74,0,0,1-.727-.5l-.3-1.142c-.013,0-.012-.008,0-.011L94.79,151.88l-14.763-8.236a2.869,2.869,0,0,1-1.524-1.959,2.778,2.778,0,0,1,2.244-3l7.538-2.093,3.81,5.4-3.235.126c-.218.009-.318.228-.161.353l7.644,6.115h1.4a2.309,2.309,0,0,1,1.482.5,1.563,1.563,0,0,1,.6,1.335,6.858,6.858,0,0,1-.3,1.853Z" transform="translate(-78.473 -136.598)" fill="#a4c9ff"/></g></g><g transform="translate(20.623 25.583)"><path d="M58.415,91.31a.6.6,0,0,1-.506-.251l-.869-1.343a.437.437,0,0,1,.235-.643.638.638,0,0,1,.777.194l.869,1.343a.437.437,0,0,1-.235.643A.674.674,0,0,1,58.415,91.31Z" transform="translate(-56.972 -89.017)" fill="#3762cc"/></g><g transform="translate(36.604 20.164)"><path d="M127,81.205a6.32,6.32,0,0,0-2.18-3.3,2.3,2.3,0,0,1-.867-1.489,2.115,2.115,0,0,1,.1-.878l.768-2.305V70.744c0-2.511-2.459-4.547-5.493-4.547s-5.493,2.036-5.493,4.547v1.108c0,.808.033,1.616.092,2.422l.962,4.482-.011,3.549-2.2.61,3.81,5.4,1.4-.054-.01.014S128.778,88.627,127,81.205Zm-4.514-9.688a2.944,2.944,0,0,1-5.785,0v-2h5.785v2Z" transform="translate(-112.677 -66.197)" fill="#4671c6"/></g><g transform="translate(36.03 8.657)"><g transform="translate(0 0)"><path d="M115.059,51.835a.6.6,0,0,1-.5-.235l-3.81-5.4a.4.4,0,0,1-.042-.407.541.541,0,0,1,.355-.283l1.806-.5.01-3.166-.953-4.441a.442.442,0,0,1-.008-.055c-.061-.845-.093-1.669-.093-2.451V33.792a4.811,4.811,0,0,1,2.657-4.148v-.766a3.677,3.677,0,0,1-2.8-3.3v-.12a1.39,1.39,0,0,1-.691-.331.931.931,0,0,1-.318-.8,1.179,1.179,0,0,1,1.012-.916l0-2.123a3.218,3.218,0,0,1,1.318-2.519,5.064,5.064,0,0,1,3.144-1.031l2.5,0a5.519,5.519,0,0,1,3.429,1.132,3.507,3.507,0,0,1,1.429,2.751l-.006,3.643a4.109,4.109,0,0,1-3.405,3.694v.154a5.114,5.114,0,0,1,3.854,4.677v2.494a.4.4,0,0,1-.021.126l-.768,2.305a1.709,1.709,0,0,0-.081.713,1.856,1.856,0,0,0,.705,1.195,6.782,6.782,0,0,1,2.334,3.54,5.066,5.066,0,0,1-1.259,5.146c-2.723,2.638-8.216,2.491-8.447,2.483a.7.7,0,0,1-.087-.008l-1.252.049h-.027ZM112.1,46.228l3.279,4.644,1.052-.041a.691.691,0,0,1,.175.016c.833,0,5.254-.076,7.4-2.155a4.28,4.28,0,0,0,1-4.346l0-.009a5.857,5.857,0,0,0-2.025-3.046,2.741,2.741,0,0,1-1.03-1.783,2.5,2.5,0,0,1,.118-1.043l.748-2.243v-2.43a4.221,4.221,0,0,0-3.451-3.887.5.5,0,0,1-.4-.453v-.86a.508.508,0,0,1,.461-.466,3.207,3.207,0,0,0,2.945-2.86l.006-3.643A2.635,2.635,0,0,0,121.3,19.56a4.24,4.24,0,0,0-2.635-.867l-2.5,0h0a3.778,3.778,0,0,0-2.345.767,2.345,2.345,0,0,0-.963,1.833l0,2.362a.77.77,0,0,1-.833.68h0c-.1,0-.178.049-.183.091a.074.074,0,0,0,.028.068.181.181,0,0,0,.123.043h.291a.531.531,0,0,1,.573.475v.57a2.787,2.787,0,0,0,2.376,2.5.5.5,0,0,1,.419.457V29.9a.465.465,0,0,1-.277.406,3.961,3.961,0,0,0-2.38,3.482V34.9c0,.754.03,1.55.089,2.366l.956,4.455a.4.4,0,0,1,.009.084l-.011,3.549a.492.492,0,0,1-.391.449Z" transform="translate(-110.675 -17.739)" fill="#3762cc"/></g></g><g transform="translate(40.571 20.575)"><path d="M128.368,72.647l.654.206,1.895.475,2.593.683,3.384.864a.818.818,0,0,1,.436.269c4.868,6.019,4.737,5.711,4.627,6.1L141.187,84a.163.163,0,0,0,.121.2.733.733,0,0,0,.817-.254l.465-.711a.223.223,0,0,1,.37.022l1.124,2.5a.439.439,0,0,0,.548.19l3.058-1.138a.326.326,0,0,0,.231-.379l-.379-1.44a2.159,2.159,0,0,0-.614-1.011l-2-1.9a.663.663,0,0,1-.146-.2l-3.325-7.154a2.253,2.253,0,0,0-1.321-1.133L134.8,69.7l-4.2-1.569a3.1,3.1,0,0,0-3.659,1.064l-.124.2c-.769,1.249-.039,2.774,1.555,3.247Z" transform="translate(-126.505 -67.929)" fill="#f9cfcf"/></g><g transform="translate(55.248 33.603)"><path d="M178.439,123.082l-.77,2.754a.163.163,0,0,0,.121.2.733.733,0,0,0,.817-.254l.465-.711a.223.223,0,0,1,.37.022l1.124,2.5a.439.439,0,0,0,.548.19l3.058-1.138a.326.326,0,0,0,.231-.379l-.342-1.3c-2.456-.435-3.582-1.53-5.62-2.173A.556.556,0,0,1,178.439,123.082Z" transform="translate(-177.664 -122.792)" fill="#a4c9ff"/></g><g transform="translate(39.998 20.1)"><path d="M143.042,84.923a1.16,1.16,0,0,1-.378-.063.908.908,0,0,1-.54-.466l-.84-1.87-.077.118a1.372,1.372,0,0,1-1.521.474.628.628,0,0,1-.481-.748l.782-2.795c-.1-.215-.732-.986-2.035-2.586-.638-.784-1.461-1.795-2.522-3.106a.241.241,0,0,0-.129-.079l-3.384-.864-2.6-.684-1.887-.473-.038-.01-.649-.2a3.18,3.18,0,0,1-2-1.6,2.37,2.37,0,0,1,.131-2.305l.124-.2a3.728,3.728,0,0,1,4.406-1.281l4.2,1.569,5.323,1.878a2.8,2.8,0,0,1,1.632,1.4l3.324,7.154a.2.2,0,0,0,.043.059l2,1.9a2.615,2.615,0,0,1,.742,1.222l.38,1.44a.789.789,0,0,1-.556.913l-3.058,1.138A1.165,1.165,0,0,1,143.042,84.923Zm-1.7-3.781.054,0a.776.776,0,0,1,.674.417l1.062,2.364,2.772-1.032-.351-1.331a1.713,1.713,0,0,0-.486-.8l-2-1.9a1.128,1.128,0,0,1-.249-.342L139.5,71.363a1.734,1.734,0,0,0-1.011-.867l-5.334-1.882-4.214-1.573a2.464,2.464,0,0,0-2.912.847l-.124.2a1.566,1.566,0,0,0-.087,1.524,2.1,2.1,0,0,0,1.324,1.061l.01,0,.635.2,1.876.47,2.6.685,3.38.862a1.4,1.4,0,0,1,.744.459c1.059,1.31,1.882,2.32,2.52,3.1,2.339,2.872,2.339,2.872,2.2,3.343l-.009.029-.485,1.734.054-.083A.814.814,0,0,1,141.346,81.141Z" transform="translate(-124.508 -65.927)" fill="#3762cc"/></g><g transform="translate(37.482 31.015)"><g transform="translate(0 0)"><path d="M123.27,114.615l-6.59.884a.484.484,0,0,1-.559-.334l-.378-1.929a.42.42,0,0,1,.4-.463l6.59-.884Z" transform="translate(-115.738 -111.89)" fill="#f9a7a7"/></g></g><g transform="translate(40.659 28.698)"><path d="M136.792,108.063l-5.775.774a3.605,3.605,0,0,1-4.159-2.482c-.32-1.636,1.022-3.177,3-3.442l5.775-.774a.484.484,0,0,1,.559.334l1,5.129A.419.419,0,0,1,136.792,108.063Z" transform="translate(-126.811 -102.133)" fill="#6bdddd"/></g><g transform="translate(45.847 30.749)"><path d="M149.736,112.515l-3.6.483a1.061,1.061,0,0,1-1.224-.731.919.919,0,0,1,.883-1.013l3.6-.483Z" transform="translate(-144.896 -110.771)" fill="#f9a7a7"/></g><g transform="translate(40.085 28.222)"><g transform="translate(0 0)"><path d="M129.01,107.825a4.053,4.053,0,0,1-4.143-2.92c-.37-1.892,1.188-3.681,3.474-3.987l5.775-.774a1.227,1.227,0,0,1,.79.155.867.867,0,0,1,.427.572l1,5.129a.759.759,0,0,1-.187.654,1.1,1.1,0,0,1-.691.353l-5.774.774a5.022,5.022,0,0,1-.674.045Zm5.2-6.733-5.689.763a2.631,2.631,0,0,0-2.525,2.9,3.039,3.039,0,0,0,3.5,2.09l5.689-.763Z" transform="translate(-124.812 -100.131)" fill="#3762cc"/></g></g><g transform="translate(36.908 31.027)"><path d="M115.174,116.02a1.206,1.206,0,0,1-.618-.166.867.867,0,0,1-.427-.572l-.378-1.929a.915.915,0,0,1,.878-1.007l2.951-.4a.638.638,0,0,1,.528.161.414.414,0,0,1,.108.457,2.087,2.087,0,0,0-.115,1.192l-.566.076.566-.076a2.3,2.3,0,0,0,.564,1.1.409.409,0,0,1,.071.462.565.565,0,0,1-.44.29l-2.951.4A1.361,1.361,0,0,1,115.174,116.02Zm-.276-2.748.35,1.788,2.039-.273a3.028,3.028,0,0,1-.318-.875,2.86,2.86,0,0,1-.032-.913Z" transform="translate(-113.738 -111.944)" fill="#3762cc"/></g><g transform="translate(37.543 6.304)"><path d="M127.7,9.43h0a6.651,6.651,0,0,0-4.427-1.6h-1.288c-3.334,0-6.038,2.237-6.038,5h0c0,.107,0,.263,0,.558,4.336-1.2,8.7,1.881,8.179,5.709,0,.029-.008.059-.012.088a.655.655,0,0,0,.513.693l.851.254s3.216-1.6,3.878-4.768v0A5.526,5.526,0,0,0,127.7,9.429Z" transform="translate(-115.95 -7.829)" fill="#4671c6"/></g><g transform="translate(36.968 5.829)"><g transform="translate(0 0)"><path d="M124.052,19.079a.675.675,0,0,1-.194-.028l-.851-.254a1.126,1.126,0,0,1-.888-1.2l.011-.077a4.558,4.558,0,0,0-2.173-4.405,6.368,6.368,0,0,0-5.252-.808.674.674,0,0,1-.517-.065.455.455,0,0,1-.239-.385c0-.258,0-.412,0-.52,0-.013,0-.026,0-.039,0-3.018,2.966-5.472,6.611-5.472h1.288a7.341,7.341,0,0,1,4.833,1.739,5.911,5.911,0,0,1,1.808,6.387c-.716,3.315-4,4.986-4.14,5.056a.662.662,0,0,1-.3.068Zm-7.613-7.954a7.648,7.648,0,0,1,4.237,1.254,5.432,5.432,0,0,1,2.593,5.242l-.013.093a.177.177,0,0,0,.138.189l.577.172a7.179,7.179,0,0,0,3.392-4.321.448.448,0,0,1,.024-.077,5.056,5.056,0,0,0-1.512-5.431l-.024-.02a6.064,6.064,0,0,0-4.006-1.449h-1.288c-2.988,0-5.423,2-5.463,4.461A7.914,7.914,0,0,1,116.439,11.125Z" transform="translate(-113.947 -5.829)" fill="#3762cc"/></g></g><g transform="translate(26.218 36.407)"><g transform="translate(0 0)"><path d="M95.533,157.547H95.5a1.3,1.3,0,0,1-1.272-.871l-.284-1.081a.4.4,0,0,1-.039-.163l-1.058-4.8-14.562-8.124a3.335,3.335,0,0,1-1.771-2.289,3.262,3.262,0,0,1,2.63-3.509l7.538-2.093a.633.633,0,0,1,.678.211l3.81,5.4a.4.4,0,0,1,.009.466.6.6,0,0,1-.477.248l-2.483.1,6.935,5.548H96.32a2.958,2.958,0,0,1,1.893.643,2,2,0,0,1,.766,1.67,7.266,7.266,0,0,1-.32,1.966L97.2,155.613l0,.011L96.83,156.7a1.343,1.343,0,0,1-1.3.843Zm-.484-2.2.3,1.132a.185.185,0,0,0,.182.123.213.213,0,0,0,.2-.149l.364-1.075,1.458-4.74a6.471,6.471,0,0,0,.285-1.745,1.133,1.133,0,0,0-.44-.993,1.676,1.676,0,0,0-1.072-.357h-1.4a.642.642,0,0,1-.4-.133l-7.644-6.115a.6.6,0,0,1-.2-.73.824.824,0,0,1,.731-.44l2.289-.089-3.1-4.386-7.095,1.97a2.305,2.305,0,0,0-1.858,2.481,2.388,2.388,0,0,0,1.275,1.628l14.763,8.236a.479.479,0,0,1,.244.308l1.118,5.068a.033.033,0,0,0,0,.005Zm1.594.153h0Z" transform="translate(-76.475 -134.597)" fill="#3762cc"/></g></g></g></svg>