<svg xmlns="http://www.w3.org/2000/svg" width="68" height="64.902" viewBox="0 0 68 64.902"><g transform="translate(-6 -17.667)"><g transform="translate(14.499 47.326)"><path d="M81.444,125l-1.267-.912H42.553V125c-.041,0-.081-.006-.123-.006a5.879,5.879,0,1,0,0,11.758,6.077,6.077,0,0,0,.637-.035,19.484,19.484,0,0,0,37.863,0,6.077,6.077,0,0,0,.637.035A5.877,5.877,0,1,0,81.444,125Z" transform="translate(-36.498 -124.09)" fill="#f9cfcf"/></g><g transform="translate(16.717 47.326)"><path d="M44.455,124.09l.273,2A5.936,5.936,0,0,1,48.17,125c.042,0,.082.005.123.006v-.912Z" transform="translate(-44.455 -124.09)" fill="#3762cc"/></g><g transform="translate(58.178 47.326)"><path d="M194.493,125a5.87,5.87,0,0,1,3,.737l.18-1.65h-4.446Z" transform="translate(-193.226 -124.09)" fill="#3762cc"/></g><g transform="translate(35.813 61.694)"><g transform="translate(0 0)"><path d="M117.166,179.588h0a4.6,4.6,0,0,1-3.268-1.261,3.025,3.025,0,0,1-.923-2.123.557.557,0,0,1,1.115,0,1.894,1.894,0,0,0,.6,1.338,3.481,3.481,0,0,0,2.477.931h0a3.467,3.467,0,0,0,2.465-.931,1.9,1.9,0,0,0,.6-1.339.557.557,0,0,1,1.115,0,3.026,3.026,0,0,1-.922,2.123A4.582,4.582,0,0,1,117.166,179.588Z" transform="translate(-112.975 -175.647)" fill="#3762cc"/></g></g><g transform="translate(28.033 47.533)"><g transform="translate(0 0)"><path d="M87.408,133.44a2.35,2.35,0,0,1-2.347-2.347V127.18a2.347,2.347,0,1,1,4.694,0v3.912a2.35,2.35,0,0,1-2.347,2.347Z" transform="translate(-85.061 -124.833)" fill="#3762cc"/></g></g><g transform="translate(47.267 47.533)"><g transform="translate(0 0)"><path d="M156.423,133.44a2.35,2.35,0,0,1-2.347-2.347V127.18a2.347,2.347,0,1,1,4.695,0v3.912A2.35,2.35,0,0,1,156.423,133.44Z" transform="translate(-154.076 -124.833)" fill="#3762cc"/></g></g><g transform="translate(16.355 18.224)"><g transform="translate(0 0)"><path d="M67.012,19.667H65.928A22.772,22.772,0,0,0,43.156,42.439v6.329H89.785V42.439A22.773,22.773,0,0,0,67.012,19.667Z" transform="translate(-43.156 -19.667)" fill="#4671c6"/></g></g><g transform="translate(15.797 17.667)"><g transform="translate(0 0)"><path d="M88.342,47.884H41.712a.558.558,0,0,1-.557-.557V41a23.357,23.357,0,0,1,23.33-23.33h1.084A23.357,23.357,0,0,1,88.9,41v6.329A.558.558,0,0,1,88.342,47.884ZM42.27,46.769H87.784V41A22.24,22.24,0,0,0,65.569,18.782H64.485A22.24,22.24,0,0,0,42.269,41v5.772Z" transform="translate(-41.155 -17.667)" fill="#3762cc"/></g></g><g transform="translate(13.942 46.769)"><g transform="translate(0 0)"><path d="M60.556,150.712A19.876,19.876,0,0,1,41.2,135.866q-.1,0-.208,0a6.435,6.435,0,0,1-.434-12.859v-.363a.558.558,0,0,1,.557-.557H78.734a.559.559,0,0,1,.326.105l1.119.805a6.515,6.515,0,0,1,4.494,1.843,6.358,6.358,0,0,1,1.941,4.589,6.471,6.471,0,0,1-6.49,6.437q-.1,0-.208,0a19.877,19.877,0,0,1-19.36,14.846ZM41.625,134.719a.558.558,0,0,1,.542.43,18.926,18.926,0,0,0,36.777,0,.558.558,0,0,1,.6-.427,5.5,5.5,0,0,0,.578.032,5.355,5.355,0,0,0,5.375-5.322,5.252,5.252,0,0,0-1.6-3.791,5.413,5.413,0,0,0-3.879-1.525.52.52,0,0,1-.341-.1l-1.121-.807H41.668v.355a.558.558,0,0,1-.557.557H41.1c-.029,0-.057,0-.086,0h0a5.321,5.321,0,1,0-.023,10.642,5.508,5.508,0,0,0,.578-.032l.059,0Z" transform="translate(-34.498 -122.09)" fill="#3762cc"/></g></g><g transform="translate(37.047 51.232)"><g transform="translate(0 0)"><path d="M117.4,138.106v1.512l1,.733h3.913l1-.733v-1.512H117.4Z" transform="translate(-117.404 -138.106)" fill="#e0ebfc"/></g></g><g transform="translate(36.49 50.675)"><g transform="translate(0)"><path d="M120.871,139.467h-3.913a.558.558,0,0,1-.331-.109l-1-.733a.557.557,0,0,1-.227-.449v-1.512a.558.558,0,0,1,.557-.557h5.906a.558.558,0,0,1,.557.557v1.512a.558.558,0,0,1-.227.449l-1,.733A.559.559,0,0,1,120.871,139.467Zm-3.73-1.115h3.547l.622-.458v-.673h-4.791v.673Z" transform="translate(-115.404 -136.106)" fill="#3762cc"/></g></g><g transform="translate(20.719 45.601)"><path d="M71.136,130.372h-6.7a5.615,5.615,0,0,1-5.615-5.615v-1.24a5.615,5.615,0,0,1,5.615-5.615h6.7a5.615,5.615,0,0,1,5.615,5.615v1.24A5.615,5.615,0,0,1,71.136,130.372Z" transform="translate(-58.817 -117.902)" fill="#e0ebfc"/></g><g transform="translate(23.148 47.764)"><g transform="translate(0 0)"><path d="M71.087,133.807a3.556,3.556,0,0,1-3.556-3.556v-1.033a3.556,3.556,0,0,1,3.556-3.556h5.965a3.556,3.556,0,0,1,3.556,3.556v1.033a3.556,3.556,0,0,1-3.556,3.556Z" transform="translate(-67.531 -125.661)" fill="#4671c6"/></g></g><g transform="translate(41.341 45.601)"><path d="M145.13,130.372h-6.7a5.615,5.615,0,0,1-5.615-5.615v-1.24a5.615,5.615,0,0,1,5.615-5.615h6.7a5.615,5.615,0,0,1,5.615,5.615v1.24A5.615,5.615,0,0,1,145.13,130.372Z" transform="translate(-132.811 -117.902)" fill="#e0ebfc"/></g><g transform="translate(43.77 47.764)"><g transform="translate(0 0)"><path d="M145.082,133.807a3.556,3.556,0,0,1-3.556-3.556v-1.033a3.556,3.556,0,0,1,3.556-3.556h5.965a3.556,3.556,0,0,1,3.556,3.556v1.033a3.556,3.556,0,0,1-3.556,3.556Z" transform="translate(-141.526 -125.661)" fill="#4671c6"/></g></g><g transform="translate(20.162 45.045)"><g transform="translate(0)"><path d="M69.694,129.488h-6.7a6.179,6.179,0,0,1-6.172-6.172v-1.24A6.179,6.179,0,0,1,62.99,115.9h6.7a6.179,6.179,0,0,1,6.172,6.172v1.24A6.179,6.179,0,0,1,69.694,129.488Zm-6.7-12.469a5.063,5.063,0,0,0-5.057,5.057v1.24a5.063,5.063,0,0,0,5.057,5.057h6.7a5.063,5.063,0,0,0,5.057-5.057v-1.24a5.063,5.063,0,0,0-5.057-5.057Z" transform="translate(-56.818 -115.904)" fill="#3762cc"/></g></g><g transform="translate(40.784 45.045)"><path d="M143.689,129.488h-6.7a6.179,6.179,0,0,1-6.172-6.172v-1.24a6.179,6.179,0,0,1,6.172-6.172h6.7a6.179,6.179,0,0,1,6.172,6.172v1.24A6.179,6.179,0,0,1,143.689,129.488Zm-6.7-12.469a5.063,5.063,0,0,0-5.058,5.057v1.24a5.063,5.063,0,0,0,5.058,5.057h6.7a5.063,5.063,0,0,0,5.057-5.057v-1.24a5.063,5.063,0,0,0-5.057-5.057Z" transform="translate(-130.812 -115.904)" fill="#3762cc"/></g><g transform="translate(33.362 38.011)"><g transform="translate(0 0)"><path d="M115.773,96.323H105.2a1.023,1.023,0,0,1-1.023-1.023V93.47a2.8,2.8,0,0,1,2.8-2.8h7.008a2.8,2.8,0,0,1,2.8,2.8V95.3A1.024,1.024,0,0,1,115.773,96.323Z" transform="translate(-104.181 -90.667)" fill="#6bdddd"/></g></g><g transform="translate(6.557 69.192)"><g transform="translate(0)"><path d="M52.587,202.552c-5.573,0-5.573,3.344-11.147,3.344s-5.574-3.344-11.148-3.344S24.719,205.9,19.146,205.9,13.572,202.552,8,202.552V213.7a1.672,1.672,0,0,0,1.672,1.672H73.212a1.672,1.672,0,0,0,1.672-1.672V202.552c-5.574,0-5.574,3.344-11.149,3.344S58.162,202.552,52.587,202.552Z" transform="translate(-7.999 -202.552)" fill="#a4c9ff"/></g></g><g transform="translate(6 68.635)"><g transform="translate(0)"><path d="M71.77,214.486H8.23A2.232,2.232,0,0,1,6,212.257V201.109a.558.558,0,0,1,.557-.557,9.957,9.957,0,0,1,5.86,1.752A8.906,8.906,0,0,0,17.7,203.9a8.9,8.9,0,0,0,5.287-1.593,9.958,9.958,0,0,1,5.86-1.752,9.958,9.958,0,0,1,5.86,1.752A8.907,8.907,0,0,0,40,203.9a8.906,8.906,0,0,0,5.287-1.593,10.681,10.681,0,0,1,11.721,0,9.573,9.573,0,0,0,10.575,0,9.961,9.961,0,0,1,5.861-1.752.558.558,0,0,1,.557.557v11.148A2.232,2.232,0,0,1,71.77,214.486ZM7.115,201.679v10.578a1.116,1.116,0,0,0,1.115,1.115H71.77a1.116,1.116,0,0,0,1.115-1.115V201.679a8.884,8.884,0,0,0-4.73,1.58,10.682,10.682,0,0,1-11.722,0,9.572,9.572,0,0,0-10.574,0A9.958,9.958,0,0,1,40,205.011a9.959,9.959,0,0,1-5.861-1.752,8.906,8.906,0,0,0-5.287-1.593,8.9,8.9,0,0,0-5.287,1.593,9.958,9.958,0,0,1-5.86,1.752,9.958,9.958,0,0,1-5.86-1.752,8.881,8.881,0,0,0-4.729-1.58Z" transform="translate(-6 -200.552)" fill="#3762cc"/></g></g><g transform="translate(35.164 39.956)"><g transform="translate(0 0)"><path d="M118.776,99.411H111.53a.883.883,0,0,1,0-1.765h7.246a.883.883,0,0,1,0,1.765Z" transform="translate(-110.647 -97.646)" fill="#e0ebfc"/></g></g></g></svg>