<svg xmlns="http://www.w3.org/2000/svg" width="89.509" height="37.2" viewBox="0 0 89.509 37.2"><g transform="translate(0 -17.732)"><path d="M4.425,32.857a21.9,21.9,0,0,0,13.442-4.595,21.966,21.966,0,0,0,26.888,0,21.961,21.961,0,0,0,26.885,0,21.914,21.914,0,0,0,13.445,4.595,4.425,4.425,0,0,0,0-8.85,13.1,13.1,0,0,1-10.055-4.7,4.427,4.427,0,0,0-3.388-1.578h0a4.426,4.426,0,0,0-3.387,1.577,13.109,13.109,0,0,1-20.107,0,4.421,4.421,0,0,0-3.387-1.58h0a4.425,4.425,0,0,0-3.387,1.577,13.119,13.119,0,0,1-20.121,0,4.426,4.426,0,0,0-3.385-1.575,4.3,4.3,0,0,0-3.391,1.581A13.093,13.093,0,0,1,4.425,24.007a4.425,4.425,0,1,0,0,8.85Z" transform="translate(0 0)" fill="#2266af"/><path d="M85.084,38.973a13.1,13.1,0,0,1-10.055-4.7,4.424,4.424,0,0,0-3.388-1.58h0a4.427,4.427,0,0,0-3.388,1.578,13.109,13.109,0,0,1-20.107,0,4.419,4.419,0,0,0-3.387-1.58h0a4.423,4.423,0,0,0-3.387,1.577,13.119,13.119,0,0,1-20.121,0A4.426,4.426,0,0,0,17.864,32.7h0a4.426,4.426,0,0,0-3.387,1.583A13.084,13.084,0,0,1,4.425,38.973a4.425,4.425,0,1,0,0,8.85,21.9,21.9,0,0,0,13.442-4.595,21.966,21.966,0,0,0,26.888,0,21.961,21.961,0,0,0,26.885,0,21.914,21.914,0,0,0,13.445,4.595,4.425,4.425,0,0,0,0-8.85Z" transform="translate(0 7.109)" fill="#2266af"/></g></svg>